<svg xmlns="http://www.w3.org/2000/svg" width="96" height="96" viewBox="0 0 96 96"><rect x="0" y="0" width="96" height="96" rx="24" ry="24" fill="#2F7FD4"/><g transform="translate(22.0,22.0) scale(2.1666666666666665)" fill="none" stroke="#ffffff" stroke-width="2" stroke-linecap="round" stroke-linejoin="round"><path d="M3 7a3 3 0 0 1 3 -3h12a3 3 0 0 1 3 3v2a3 3 0 0 1 -3 3h-12a3 3 0 0 1 -3 -3v-2" /> <path d="M3 15a3 3 0 0 1 3 -3h12a3 3 0 0 1 3 3v2a3 3 0 0 1 -3 3h-12a3 3 0 0 1 -3 -3l0 -2" /> <path d="M7 8l0 .01" /> <path d="M7 16l0 .01" /></g></svg>